<?xml version="1.0" encoding="UTF-8" standalone="no"?>
<svg
   viewBox="0 0 122.7547 122.7599"
   id="archlinux"
   version="1.1"
   sodipodi:docname="arch.svg"
   width="122.7547"
   height="122.7599"
   inkscape:version="1.2.2 (b0a8486541, 2022-12-01)"
   xmlns:inkscape="http://www.inkscape.org/namespaces/inkscape"
   xmlns:sodipodi="http://sodipodi.sourceforge.net/DTD/sodipodi-0.dtd"
   xmlns="http://www.w3.org/2000/svg"
   xmlns:svg="http://www.w3.org/2000/svg">
  <defs
     id="defs9" />
  <sodipodi:namedview
     id="namedview7"
     pagecolor="#ffffff"
     bordercolor="#000000"
     borderopacity="0.25"
     inkscape:showpageshadow="2"
     inkscape:pageopacity="0.0"
     inkscape:pagecheckerboard="0"
     inkscape:deskcolor="#d1d1d1"
     showgrid="false"
     inkscape:zoom="5.5500282"
     inkscape:cx="80.359952"
     inkscape:cy="66.756418"
     inkscape:window-width="1920"
     inkscape:window-height="1080"
     inkscape:window-x="0"
     inkscape:window-y="0"
     inkscape:window-maximized="1"
     inkscape:current-layer="archlinux" />
  <path
     fill="#7C49AA"
     d="m 47.676877,93.624887 0.01525,-0.618915 c 0.312015,-12.465245 6.792716,-22.055863 14.475438,-21.401144 7.682725,0.64449 13.651926,11.288797 13.35014,23.748928 -0.06139,2.347782 -0.322244,4.603495 -0.787709,6.695524 13.902559,2.72118 28.833234,9.62643 48.024704,20.70551 -3.77999,-6.96663 -7.161,-13.24784 -10.39368,-19.22727 -5.0843,-3.938548 -10.38344,-9.06889 -21.186311,-14.613544 7.426974,1.933468 12.751691,4.153375 16.894831,6.649493 C 75.26205,34.505763 72.612483,26.388264 61.364607,0 55.896675,13.391059 52.607735,22.147933 46.526003,35.150253 50.259951,39.10926 54.837871,43.70764 62.275076,48.909592 54.280337,45.62065 48.827751,42.316361 44.751101,38.89443 36.966077,55.139657 24.761696,78.279899 0,122.7599 19.46256,111.52737 34.546683,104.60678 48.602692,101.95721 a 35.498071,35.498071 0 0 1 -0.925815,-8.332323 z"
     id="path2"
     style="stroke-width:5.11499" />
  <path
     d="M 11.39,1.002 11.391,1 Z"
     id="path4" />
</svg>
